<svg width="17" height="18" viewBox="0 0 17 18" fill="none" xmlns="http://www.w3.org/2000/svg">
<path d="M12.0771 14.865C11.3829 15.5379 10.625 15.4317 9.89539 15.1129C9.12331 14.7871 8.41497 14.7729 7.60039 15.1129C6.58039 15.5521 6.04206 15.4246 5.43289 14.865C1.97622 11.3021 2.48622 5.87625 6.41039 5.67792C7.36664 5.7275 8.03247 6.20208 8.59206 6.24458C9.42789 6.07458 10.2283 5.58583 11.1208 5.64958C12.1904 5.73458 12.9979 6.15958 13.5291 6.92458C11.3191 8.24917 11.8433 11.1604 13.8691 11.975C13.4654 13.0375 12.9412 14.0929 12.07 14.8721L12.0771 14.865ZM8.52122 5.63542C8.41497 4.05583 9.69706 2.7525 11.1704 2.625C11.3758 4.4525 9.51289 5.8125 8.52122 5.63542Z" fill="white"/>
</svg>
